# xmcd
#
# Track frame offsets:
#	150
#	25021
#	48013
#	64842
#	72154
#	106890
#	123632
#	155123
#	178522
#	186769
#
# Disc length: 2853 seconds
#
# Revision: 0
# Processed by: cddbd v1.5.2PL0 Copyright (c) Steve Scherf et al.
# Submitted via: EZCDAudioConverter 2.1.7.1
#
DISCID=830b230a
DTITLE=Shaolin Afronauts - Follow The Path 2/2
DYEAR=1900
DGENRE=
TTITLE0=Abyssinian Suite (Part 1)
TTITLE1=Abyssinian Suite (Part 2)
TTITLE2=Abyssinian Suite (Part 3)
TTITLE3=Caravan To Tao Ceti Intro
TTITLE4=Caravan To Tao Ceti
TTITLE5=Outside Beyond/Three Ways Back (Part 1)
TTITLE6=Outside Beyond/Three Ways Back (Part 2)
TTITLE7=Outside Beyond/Three Ways Back (Part 3)
TTITLE8=Interstellar Griot (Part 1)
TTITLE9=Interstellar Griot (Part 2)
EXTD=
EXTT0=
EXTT1=
EXTT2=
EXTT3=
EXTT4=
EXTT5=
EXTT6=
EXTT7=
EXTT8=
EXTT9=
PLAYORDER=
